<svg width="28" height="29" viewBox="0 0 28 29" fill="none" xmlns="http://www.w3.org/2000/svg">
<path d="M23 12.4551C23 19.4551 14 25.4551 14 25.4551C14 25.4551 5 19.4551 5 12.4551C5 10.0681 5.94821 7.77894 7.63604 6.09112C9.32387 4.40329 11.6131 3.45508 14 3.45508C16.3869 3.45508 18.6761 4.40329 20.364 6.09112C22.0518 7.77894 23 10.0681 23 12.4551Z" stroke="#999999" stroke-linecap="round" stroke-linejoin="round"/>
<path d="M14 15.4551C15.6569 15.4551 17 14.1119 17 12.4551C17 10.7982 15.6569 9.45508 14 9.45508C12.3431 9.45508 11 10.7982 11 12.4551C11 14.1119 12.3431 15.4551 14 15.4551Z" stroke="#999999" stroke-linecap="round" stroke-linejoin="round"/>
</svg>
