<svg width="28" height="29" viewBox="0 0 28 29" fill="none" xmlns="http://www.w3.org/2000/svg">
<path d="M14 9.45508C14 8.39421 13.5786 7.3768 12.8284 6.62665C12.0783 5.87651 11.0609 5.45508 10 5.45508H4V20.4551H11C11.7956 20.4551 12.5587 20.7711 13.1213 21.3338C13.6839 21.8964 14 22.6594 14 23.4551M14 9.45508V23.4551M14 9.45508C14 8.39421 14.4214 7.3768 15.1716 6.62665C15.9217 5.87651 16.9391 5.45508 18 5.45508H24V20.4551H17C16.2044 20.4551 15.4413 20.7711 14.8787 21.3338C14.3161 21.8964 14 22.6594 14 23.4551" stroke="#999999" stroke-linecap="round" stroke-linejoin="round"/>
</svg>
